<svg width="14" height="13" viewBox="0 0 14 13" fill="none" xmlns="http://www.w3.org/2000/svg">
<path d="M6.79771 1.7175L7.17839 2.16454L7.55906 1.7175C8.19393 0.971968 9.16978 0.5 10.1784 0.5C11.9556 0.5 13.3451 1.88948 13.3451 3.66667C13.3451 4.76242 12.8568 5.79574 11.8955 6.97094C10.9285 8.15316 9.53591 9.41715 7.80918 10.9829L7.80846 10.9836L7.17711 11.5583L6.54798 10.99C6.54786 10.9899 6.54774 10.9897 6.54762 10.9896C4.82095 9.42054 3.42838 8.15499 2.46135 6.9719C1.50001 5.79577 1.01172 4.76243 1.01172 3.66667C1.01172 1.88948 2.40119 0.5 4.17839 0.5C5.18699 0.5 6.16284 0.971968 6.79771 1.7175ZM2.90851 6.98677C3.85204 8.08926 5.193 9.30385 6.76694 10.729L6.82483 10.7869L7.17839 11.1404L7.53194 10.7869L7.58982 10.729C9.16377 9.30385 10.5047 8.08927 11.4483 6.98677C12.3888 5.88781 13.0117 4.81456 13.0117 3.66667C13.0117 2.05719 11.7879 0.833333 10.1784 0.833333C9.08045 0.833333 8.00052 1.4617 7.486 2.40667H6.87565C6.35685 1.46289 5.27781 0.833333 4.17839 0.833333C2.56891 0.833333 1.34505 2.05719 1.34505 3.66667C1.34505 4.81456 1.968 5.88781 2.90851 6.98677Z" fill="white" fill-opacity="0.87" stroke="#512C08"/>
</svg>
