<svg width="24" height="16" viewBox="0 0 24 16" fill="none" xmlns="http://www.w3.org/2000/svg">
<path d="M5.44775 7.06732L5.76449 7.42776C6.45038 6.82592 7.22463 6.33957 8.06656 5.98386L7.87939 5.54175C6.99045 5.91775 6.17197 6.43086 5.44777 7.06737L5.44775 7.06732Z" fill="#512C08"/>
<path d="M19.6655 6.8873C18.8907 6.8873 18.1645 7.09422 17.5347 7.45182C16.0635 5.16467 13.7034 3.69446 11.0431 3.37804C11.3984 3.07084 11.6282 2.622 11.6282 2.11659C11.6282 1.19499 10.8775 0.444824 9.95444 0.444824C9.03186 0.444824 8.28117 1.19499 8.28117 2.11659C8.28117 2.62483 8.51354 3.07569 8.87162 3.38289C4.48649 3.91088 1.0665 7.59243 0.947354 12.088L0 12.0878V14.0899H1.54752L1.9324 15.5554H17.9759L18.0574 15.2428C18.5551 15.4426 19.0966 15.5554 19.6654 15.5554C22.0554 15.5554 24 13.6109 24 11.2217C24 8.83224 22.0556 6.8873 19.6655 6.8873ZM8.76053 2.11646C8.76053 1.45938 9.29573 0.924652 9.95384 0.924652C10.6124 0.924652 11.1476 1.45938 11.1476 2.11646C11.1476 2.77556 10.6119 3.3111 9.95384 3.3111C9.29577 3.3111 8.76053 2.77505 8.76053 2.11646ZM9.95384 3.79106C12.8857 3.79106 15.551 5.25407 17.1315 7.71161C16.0429 8.4998 15.331 9.77745 15.331 11.2209C15.331 11.5175 15.3613 11.8075 15.4184 12.0877L1.42689 12.0879C1.55562 7.49193 5.32648 3.79106 9.95384 3.79106ZM0.480299 13.61V12.5679H15.5488C15.6707 12.9394 15.8406 13.2898 16.0532 13.61H0.480299ZM17.6051 15.075H2.30301L2.04436 14.0897L16.4259 14.0895C16.7634 14.4702 17.1637 14.7941 17.6153 15.0376L17.6051 15.075ZM19.6658 15.075C17.5403 15.075 15.8118 13.346 15.8118 11.2211C15.8118 9.09615 17.5408 7.36713 19.6658 7.36713C21.7907 7.36713 23.5202 9.09615 23.5202 11.2211C23.5202 13.346 21.7907 15.075 19.6658 15.075Z" fill="#512C08"/>
<path d="M21.1669 8.93018L19.617 10.8947L19.0885 10.5271L18.8135 10.9207L19.3189 11.2726L18.9939 11.6848L19.3708 11.9819L19.7135 11.5475L20.9883 12.4346L21.2629 12.041L20.0115 11.1698L21.5438 9.22716L21.1669 8.93018Z" fill="#512C08"/>
</svg>
